<svg width="32" height="32" viewBox="0 0 32 32" fill="none" xmlns="http://www.w3.org/2000/svg">
<path d="M5.22349 10.7168C4.43979 12.3123 4 14.107 4 16.0011C4 22.6285 9.37259 28.0011 16 28.0011C17.8955 28.0011 19.6912 27.5607 21.2876 26.7761C22.4513 27.2738 23.5797 27.6002 24.6085 27.6841C25.8109 27.7821 27.0667 27.5566 27.9757 26.6475C28.9785 25.6447 29.15 24.2265 28.9705 22.8982C28.8069 21.6863 28.3308 20.3397 27.6347 18.9499C27.8735 18.0053 28 17.0171 28 16.0011C28 9.3737 22.6275 4.00112 16 4.00112C14.9852 4.00112 13.9983 4.12737 13.0547 4.36556C11.6632 3.66772 10.3147 3.19026 9.10147 3.02576C7.77196 2.8455 6.35208 3.01636 5.34828 4.02014C4.43827 4.93016 4.21335 6.18738 4.31213 7.39108C4.39669 8.4213 4.72417 9.55126 5.22349 10.7168ZM7.09653 7.95564C7.0312 7.67225 6.98939 7.41084 6.96987 7.17294C6.90571 6.39121 7.08969 6.04996 7.23391 5.90576C7.39269 5.74697 7.79729 5.54001 8.74319 5.66825C9.00643 5.70394 9.29268 5.76382 9.6 5.8486C8.67152 6.435 7.82937 7.14509 7.09653 7.95564ZM26.1499 22.4053C26.2335 22.7101 26.2927 22.9939 26.3279 23.2551C26.4555 24.1994 26.2487 24.6033 26.0901 24.7619C25.946 24.9059 25.6053 25.0898 24.8252 25.0262C24.5892 25.0069 24.33 24.9657 24.0491 24.9013C24.8569 24.1703 25.5648 23.3307 26.1499 22.4053ZM21.1749 23.7698C18.9395 22.5989 16.3428 20.6714 13.8336 18.1623C11.3272 15.6559 9.40123 13.0621 8.22988 10.8283C9.41809 9.0475 11.2017 7.6988 13.2924 7.0662C14.1477 6.8074 15.0564 6.66778 16 6.66778C21.1547 6.66778 25.3333 10.8465 25.3333 16.0011C25.3333 16.9457 25.1935 17.8551 24.9341 18.7113C24.3015 20.8001 22.954 22.5821 21.1749 23.7698ZM18.1403 25.0882C17.4535 25.2493 16.7371 25.3345 16 25.3345C10.8453 25.3345 6.66667 21.1558 6.66667 16.0011C6.66667 15.2649 6.75169 14.5491 6.91239 13.863C8.19844 15.8853 9.913 18.013 11.9479 20.0479C13.9853 22.0853 16.1157 23.8015 18.1403 25.0882Z" fill="#1BD96A"/>
</svg>
